<svg width="65" height="64" viewBox="0 0 65 64" fill="none" xmlns="http://www.w3.org/2000/svg">
<rect x="0.5" width="64" height="64" rx="12" fill="url(#paint0_linear_4_61227)"/>
<path d="M27.3066 28.1515L36.343 9.6066C36.885 8.615 37.9132 8 39.0293 8L42.5988 8L38.0621 28.1515M53.427 35.9604C55.1242 35.9604 56.5 34.5619 56.5 32.8368L56.5 20.551C56.5 20.436 56.4083 20.3427 56.2951 20.3427C52.1654 20.3427 48.8175 23.7456 48.8175 27.9433C48.8175 28.0583 48.7258 28.1515 48.6127 28.1515L18.3524 28.1515C16.1957 28.1515 14.1073 28.9201 12.4505 30.3234L9.05591 33.1988C7.95192 34.1339 8.60248 35.9603 10.0396 35.9603L25.4984 35.9603C26.6145 35.9603 27.6427 36.5753 28.1847 37.567L36.343 54.3934C36.885 55.385 37.9132 56 39.0292 56L42.5988 56L38.0621 35.9603L53.427 35.9604Z" stroke="#0967D2" stroke-width="3" stroke-linecap="round" stroke-linejoin="round"/>
<defs>
<linearGradient id="paint0_linear_4_61227" x1="32.5" y1="0" x2="32.5" y2="64" gradientUnits="userSpaceOnUse">
<stop stop-color="#F1F7FD"/>
<stop offset="1" stop-color="#CDDEEE"/>
</linearGradient>
</defs>
</svg>
